Coordinates
version=1
nRows=9
nColumns=42
inDegrees=yes

Units are S.I. units (second, meters, Newtons, ...)
If the header above contains a line with 'inDegrees', this indicates whether rotational values are in degrees (yes) or radians (no).

endheader
time	pelvis_tilt	pelvis_list	pelvis_rotation	pelvis_tx	pelvis_ty	pelvis_tz	hip_flexion_r	hip_adduction_r	hip_rotation_r	knee_angle_r	knee_adduction_r	knee_angle_r_beta	ankle_angle_r	subtalar_angle_r	mtp_angle_r	hip_flexion_l	hip_adduction_l	hip_rotation_l	knee_angle_l	knee_adduction_l	knee_angle_l_beta	ankle_angle_l	subtalar_angle_l	mtp_angle_l	lumbar_extension	lumbar_bending	lumbar_rotation	arm_flex_r	arm_add_r	arm_rot_r	elbow_flex_r	pro_sup_r	wrist_flex_r	wrist_dev_r	arm_flex_l	arm_add_l	arm_rot_l	elbow_flex_l	pro_sup_l	wrist_flex_l	wrist_dev_l
      4.69000000	      2.82688250	      3.70637040	     20.42993589	      0.87595640	      0.90058924	      0.43047384	      7.00528193	     -2.68747655	    -35.38487854	     23.62782141	     -4.68989968	      0.41238328	     17.30045728	     16.20220712	     -7.50035872	      7.61053026	     -9.23031133	      1.83912592	     35.20863510	      6.85579772	      0.61450661	     12.85679250	     22.90840978	     -7.50035872	    -19.78898986	     -4.35190847	     -8.79124874	    -18.13902667	    -11.82188998	    -22.37333013	     56.55935432	     90.00000001	      0.00000000	      0.00000000	      1.15773731	    -17.75597888	     11.63115555	     93.09837035	     90.00000001	      0.00000000	      0.00000000
      4.70000000	      2.92806924	      3.68902076	     20.48506059	      0.87772396	      0.90061283	      0.43170184	      6.74664117	     -2.45860310	    -35.39152106	     23.49006771	     -4.66355069	      0.40997902	     17.43504111	     16.24898617	     -7.50035683	      7.68661270	     -9.46812183	      2.17964223	     35.52789879	      6.95701382	      0.62007881	     12.65090888	     23.08655813	     -7.50035683	    -19.88792105	     -4.43651927	     -8.75463075	    -18.24223069	    -12.05126489	    -22.49008897	     56.32331757	     90.00000001	      0.00000000	      0.00000000	      1.36868228	    -17.68358895	     11.39392327	     93.10411539	     90.00000001	      0.00000000	      0.00000000
      4.71000000	      2.91056938	      3.71849121	     20.45236517	      0.87951102	      0.90057358	      0.43301848	      6.67254796	     -2.35973369	    -35.36628653	     23.51045840	     -4.64333604	      0.41033491	     17.44165749	     16.25088646	     -7.50035650	      7.71515176	     -9.56650317	      2.26830501	     35.57532877	      6.89648158	      0.62090662	     12.62550165	     23.09601129	     -7.50035650	    -19.86382867	     -4.64924933	     -8.74730934	    -18.25286596	    -12.12259817	    -22.51430997	     56.30710934	     90.00000001	      0.00000000	      0.00000000	      1.38552414	    -17.68102417	     11.36262004	     93.09637597	     90.00000001	      0.00000000	      0.00000000
      4.72000000	      3.01707899	      3.74171536	     20.49890294	      0.88102440	      0.90053664	      0.43425535	      6.43428514	     -2.15697813	    -35.31043091	     23.39131769	     -4.65891642	      0.40825551	     17.59142050	     16.28961948	     -7.50035484	      7.80342033	     -9.70938842	      2.69503511	     35.96959754	      6.99595913	      0.62778791	     12.40708389	     23.29058865	     -7.50035484	    -20.03380376	     -4.76375480	     -8.67973112	    -18.41094762	    -12.50315522	    -22.66104210	     56.05197012	     90.00000001	      0.00000000	      0.00000000	      1.63653635	    -17.65260411	     11.03638448	     93.07682434	     90.00000001	      0.00000000	      0.00000000
      4.73000000	      2.99176667	      3.76246008	     20.48813011	      0.88272057	      0.90044014	      0.43552919	      6.37160683	     -2.06350663	    -35.28486735	     23.41244811	     -4.63829152	      0.40862431	     17.60039800	     16.29027725	     -7.50035455	      7.82354500	     -9.80544911	      2.77378779	     36.00686090	      6.93576705	      0.62843828	     12.38362045	     23.29860799	     -7.50035455	    -20.00913191	     -4.96221922	     -8.66776751	    -18.41174284	    -12.55569592	    -22.67758387	     56.04052204	     90.00000001	      0.00000000	      0.00000000	      1.64812695	    -17.64211172	     11.00450511	     93.06584155	     90.00000001	      0.00000000	      0.00000000
      4.74000000	      3.06082036	      3.67925703	     20.55355216	      0.88420725	      0.90033790	      0.43680357	      6.19025750	     -1.71436016	    -35.19825753	     23.19277445	     -4.69464025	      0.40479028	     18.00587719	     16.37146999	     -7.50034682	      7.94579873	    -10.09045126	      3.16519045	     36.31135773	      7.09516308	      0.63375275	     11.92381142	     23.80312717	     -7.50034682	    -20.08301193	     -4.97856694	     -8.64268818	    -18.29861368	    -12.79873638	    -22.84429601	     55.43911120	     90.00000001	      0.00000000	      0.00000000	      1.76574602	    -17.14232887	      9.89145067	     92.68946951	     90.00000001	      0.00000000	      0.00000000
      4.75000000	      3.02439660	      3.70479009	     20.53865421	      0.88571455	      0.90021177	      0.43811681	      6.15654253	     -1.63648168	    -35.17029404	     23.22351057	     -4.67015387	      0.40532672	     18.00063824	     16.37087779	     -7.50034653	      7.96727247	    -10.15866111	      3.22400141	     36.34051528	      7.02757822	      0.63426164	     11.91658361	     23.79927630	     -7.50034653	    -20.08610527	     -5.17968756	     -8.64265069	    -18.30507142	    -12.84667036	    -22.86187017	     55.43916757	     90.00000001	      0.00000000	      0.00000000	      1.77157200	    -17.14321502	      9.87101267	     92.68212421	     90.00000001	      0.00000000	      0.00000000
      4.76000000	      3.02808573	      3.79043356	     20.56172854	      0.88703816	      0.90008802	      0.43932736	      6.07340675	     -1.58618740	    -35.09060484	     23.25204444	     -4.70247775	      0.40582473	     18.04508214	     16.38247158	     -7.50034522	      8.01268048	    -10.12523634	      3.43254318	     36.54541971	      6.96008863	      0.63783790	     11.85051274	     23.87362021	     -7.50034522	    -20.18401911	     -5.39473891	     -8.62459399	    -18.37917354	    -13.03252661	    -22.96947840	     55.39062447	     90.00000001	      0.00000000	      0.00000000	      1.87653062	    -17.15342682	      9.65469951	     92.64338030	     90.00000001	      0.00000000	      0.00000000
      4.77000000	      2.98015205	      3.80714283	     20.55751737	      0.88840908	      0.89995748	      0.44062549	      6.05849269	     -1.51280747	    -35.06752066	     23.27418643	     -4.67254836	      0.40621118	     18.04816957	     16.37988253	     -7.50034495	      8.03478045	    -10.18970580	      3.48459844	     36.56576033	      6.90012392	      0.63819291	     11.83790771	     23.87191937	     -7.50034495	    -20.20152220	     -5.57671786	     -8.61430228	    -18.37679100	    -13.06266623	    -22.98272230	     55.39714186	     90.00000001	      0.00000000	      0.00000000	      1.87301108	    -17.14549492	      9.63243207	     92.62803834	     90.00000001	      0.00000000	      0.00000000
